<svg width="55" height="55" viewBox="0 0 55 55" fill="none" xmlns="http://www.w3.org/2000/svg">
<path d="M41.1987 42.2736H41.0692C41.006 42.2586 40.9463 42.2309 40.8941 42.1923C40.8417 42.1537 40.7977 42.1048 40.7647 42.0488C40.7317 41.9926 40.7104 41.9305 40.7021 41.866C40.6937 41.8015 40.6985 41.7359 40.7161 41.6733C40.7749 41.4496 46.7434 18.2938 40.9044 12.1252C38.55 9.68833 36.0308 8.75833 33.6881 9.51175C30.8157 10.4417 28.579 13.8086 28.0022 18.0819C27.9846 18.2112 27.9166 18.3284 27.813 18.4078C27.7093 18.4872 27.5784 18.5224 27.4489 18.5057C27.3195 18.4881 27.2024 18.4201 27.123 18.3164C27.0435 18.2128 27.0083 18.0819 27.0251 17.9524C27.649 13.2435 30.1565 9.61769 33.3938 8.53466C36.1132 7.66352 39.0327 8.67592 41.6343 11.4188C47.85 17.9759 41.9404 40.9198 41.6343 41.8852C41.6124 41.9877 41.5583 42.0807 41.48 42.1505C41.4017 42.2203 41.3033 42.2635 41.1987 42.2736Z" fill="#666666"/>
<path d="M12.0853 42.2734C11.9763 42.2714 11.871 42.2332 11.7858 42.1651C11.7007 42.097 11.6404 42.0026 11.6145 41.8967C11.3555 40.9313 5.44585 17.9874 11.6145 11.4303C14.2043 8.68742 17.1238 7.67502 19.855 8.54616C23.0923 9.59388 25.588 13.255 26.2119 17.9639C26.2286 18.0934 26.1934 18.2243 26.1141 18.3279C26.0346 18.4316 25.9175 18.4996 25.7881 18.5172C25.6586 18.5339 25.5277 18.4987 25.4241 18.4193C25.3204 18.34 25.2524 18.2227 25.2348 18.0934C24.658 13.8201 22.4213 10.4533 19.5489 9.52325C17.1945 8.76983 14.6399 9.69983 12.3326 12.1367C6.44649 18.3053 12.4621 41.4611 12.5209 41.6848C12.5386 41.7474 12.5433 41.813 12.5349 41.8775C12.5267 41.942 12.5053 42.0041 12.4723 42.0603C12.4393 42.1163 12.3953 42.1652 12.343 42.2038C12.2907 42.2424 12.2311 42.2701 12.1678 42.2851L12.0853 42.2734Z" fill="#666666"/>
<path d="M12.4867 32.8202C12.3991 32.8193 12.3131 32.796 12.237 32.7528C12.1608 32.7096 12.0969 32.6478 12.0511 32.573C11.9875 32.459 11.9716 32.3244 12.0069 32.1987C12.0423 32.0731 12.1258 31.9664 12.2394 31.902L14.5939 30.5482V25.2272L21.7867 28.8413C21.8445 28.87 21.896 28.9099 21.9382 28.9589C21.9803 29.0077 22.0122 29.0647 22.032 29.1261C22.0516 29.1876 22.0589 29.2525 22.0532 29.3167C22.0474 29.381 22.0288 29.4435 21.9986 29.5005C21.9712 29.5596 21.9319 29.6123 21.8832 29.6554C21.8345 29.6985 21.7772 29.731 21.7153 29.7509C21.6534 29.7709 21.5881 29.7777 21.5233 29.771C21.4586 29.7644 21.3959 29.7445 21.3393 29.7124L15.618 26.8282V31.1251L12.7221 32.7614C12.6491 32.7986 12.5686 32.8187 12.4867 32.8202Z" fill="#666666"/>
<path d="M18.5843 45.1463H18.4901C18.4258 45.135 18.3644 45.111 18.3094 45.0758C18.2546 45.0406 18.207 44.9949 18.1698 44.9412C18.1326 44.8877 18.1063 44.8272 18.0927 44.7634C18.0789 44.6996 18.078 44.6336 18.0899 44.5695L19.0199 39.4839L16.6066 32.5266L22.7634 31.7025C22.8875 31.6962 23.0093 31.7368 23.1048 31.8162C23.2003 31.8957 23.2624 32.0082 23.2787 32.1314C23.295 32.2545 23.2644 32.3793 23.193 32.4809C23.1214 32.5825 23.0143 32.6534 22.8929 32.6796L17.9368 33.3389L20.0794 39.4015L19.0669 44.7343C19.0476 44.8487 18.9887 44.9527 18.9005 45.0279C18.8122 45.1032 18.7002 45.1451 18.5843 45.1463Z" fill="#666666"/>
<path d="M21.6334 24.3565C21.5637 24.3731 21.4912 24.3731 21.4215 24.3565L17.1953 22.367V18.0348C17.1843 17.9643 17.1887 17.8923 17.2082 17.8236C17.2278 17.755 17.2619 17.6914 17.3083 17.6372C17.3547 17.583 17.4124 17.5395 17.4771 17.5097C17.542 17.4799 17.6125 17.4644 17.6838 17.4644C17.7552 17.4644 17.8257 17.4799 17.8905 17.5097C17.9554 17.5395 18.013 17.583 18.0593 17.6372C18.1058 17.6914 18.14 17.755 18.1594 17.8236C18.179 17.8923 18.1833 17.9643 18.1724 18.0348V21.6842L21.8453 23.4147C21.9471 23.4626 22.0295 23.5438 22.0788 23.645C22.1283 23.746 22.1418 23.8609 22.1171 23.9706C22.0924 24.0804 22.031 24.1785 21.9431 24.2486C21.8552 24.3188 21.7459 24.3568 21.6334 24.3565Z" fill="#666666"/>
<path d="M40.7979 32.8202C40.716 32.8187 40.6356 32.7986 40.5625 32.7614L37.6665 31.1251V26.8282L31.9099 29.7124C31.8533 29.7445 31.7907 29.7644 31.7259 29.771C31.6613 29.7777 31.5959 29.7709 31.5339 29.7509C31.472 29.731 31.4148 29.6985 31.3661 29.6554C31.3173 29.6123 31.2781 29.5596 31.2507 29.5005C31.2204 29.4435 31.2018 29.381 31.1961 29.3167C31.1903 29.2525 31.1976 29.1876 31.2174 29.1261C31.237 29.0647 31.2689 29.0077 31.3111 28.9589C31.3532 28.9099 31.4048 28.87 31.4626 28.8413L38.6201 25.2272V30.6071L40.9745 31.9609C41.0882 32.0253 41.1718 32.1319 41.207 32.2575C41.2423 32.3833 41.2264 32.5178 41.1628 32.6319C41.1181 32.6865 41.0627 32.7315 40.9999 32.7639C40.9372 32.7962 40.8684 32.8154 40.7979 32.8202Z" fill="#666666"/>
<path d="M34.7006 45.1459C34.5929 45.1344 34.492 45.0879 34.4133 45.0135C34.3346 44.939 34.2825 44.8408 34.2651 44.7339L33.2997 39.3893L35.4423 33.3384L30.4862 32.6792C30.418 32.6757 30.3513 32.6581 30.2902 32.6276C30.2291 32.597 30.1751 32.5542 30.1314 32.5017C30.0877 32.4492 30.0553 32.3882 30.0364 32.3226C30.0174 32.2569 30.0123 32.1882 30.0212 32.1205C30.0303 32.0527 30.0531 31.9876 30.0885 31.9292C30.1239 31.8708 30.1709 31.8203 30.2269 31.7811C30.2827 31.7418 30.3461 31.7145 30.413 31.7008C30.48 31.6873 30.5489 31.6876 30.6157 31.7021L36.7725 32.5262L34.2651 39.4835L35.1951 44.5691C35.2069 44.6332 35.206 44.6992 35.1922 44.763C35.1786 44.8268 35.1523 44.8873 35.1151 44.9408C35.0779 44.9945 35.0305 45.0402 34.9755 45.0754C34.9205 45.1106 34.8591 45.1345 34.7948 45.1459H34.7006Z" fill="#666666"/>
<path d="M31.6519 24.3565C31.5394 24.3568 31.4302 24.3188 31.3423 24.2486C31.2544 24.1785 31.1929 24.0804 31.1682 23.9706C31.1436 23.8609 31.157 23.746 31.2065 23.645C31.2558 23.5438 31.3382 23.4626 31.44 23.4147L35.1129 21.6842V18.0348C35.102 17.9643 35.1063 17.8923 35.1259 17.8236C35.1454 17.755 35.1796 17.6914 35.2259 17.6372C35.2723 17.583 35.33 17.5395 35.3948 17.5097C35.4596 17.4799 35.5301 17.4644 35.6015 17.4644C35.6728 17.4644 35.7433 17.4799 35.8082 17.5097C35.8731 17.5395 35.9306 17.583 35.977 17.6372C36.0234 17.6914 36.0575 17.755 36.0771 17.8236C36.0966 17.8923 36.101 17.9643 36.09 18.0348V22.367L31.9109 24.3094C31.831 24.3501 31.741 24.3665 31.6519 24.3565Z" fill="#666666"/>
<path fill-rule="evenodd" clip-rule="evenodd" d="M26.0831 45.4993V27.9117C26.0765 27.671 25.9961 27.4381 25.8531 27.2444C25.71 27.0507 25.5108 26.9057 25.2826 26.8287L20.7268 25.4514C20.7272 29.4249 21.0698 33.3911 21.751 37.3059C22.7634 41.9088 23.1754 43.9454 26.0831 45.4993Z" fill="#F7A720"/>
<path opacity="0.2" fill-rule="evenodd" clip-rule="evenodd" d="M26.0827 45.4994V27.9117C26.0761 27.6711 25.9958 27.4381 25.8527 27.2445C25.7095 27.0508 25.5104 26.9057 25.2822 26.8288L24.929 26.7228C23.7261 28.5301 22.9492 30.587 22.657 32.7383C22.2206 35.3623 22.181 38.0371 22.5393 40.6727C22.7125 41.698 23.1231 42.6685 23.7383 43.5065C24.3536 44.3446 25.1565 45.0271 26.0827 45.4994Z" fill="black"/>
<path fill-rule="evenodd" clip-rule="evenodd" d="M27.2015 45.4993V27.9117C27.2081 27.671 27.2884 27.4381 27.4315 27.2444C27.5747 27.0507 27.7739 26.9057 28.002 26.8287L32.5578 25.4514C32.5575 29.4249 32.2148 33.3911 31.5337 37.3059C30.5213 41.9088 30.1092 43.9454 27.2015 45.4993Z" fill="#F7A720"/>
<path opacity="0.2" fill-rule="evenodd" clip-rule="evenodd" d="M27.2015 45.4993V27.9117C27.2081 27.671 27.2884 27.4381 27.4315 27.2444C27.5747 27.0507 27.7739 26.9057 28.002 26.8287L32.5578 25.4514C32.5575 29.4249 32.2148 33.3911 31.5337 37.3059C30.5213 41.9088 30.1092 43.9454 27.2015 45.4993Z" fill="black"/>
<path fill-rule="evenodd" clip-rule="evenodd" d="M20.9391 24.3683C20.9391 24.3683 20.8332 23.7915 21.6808 22.2964C21.8782 21.8893 22.1686 21.5345 22.5285 21.2604C22.8885 20.9865 23.3078 20.801 23.7527 20.7189C23.7527 20.7189 24.4237 17.1873 26.6604 17.1873C28.8971 17.1873 29.886 20.8484 29.886 20.8484C30.6089 21.2707 31.2315 21.8452 31.7106 22.5318C32.0279 23.0804 32.2545 23.6767 32.3816 24.2977L27.7905 25.8987C27.4106 26.0239 27.0132 26.0875 26.6133 26.087C26.2373 26.0874 25.8638 26.0278 25.5067 25.9105L20.9391 24.3683Z" fill="#F7A720"/>
<path opacity="0.2" fill-rule="evenodd" clip-rule="evenodd" d="M20.9391 24.3683C20.9391 24.3683 20.8332 23.7915 21.6808 22.2964C21.8782 21.8893 22.1686 21.5345 22.5285 21.2604C22.8885 20.9865 23.3078 20.801 23.7527 20.7189C23.7527 20.7189 24.4237 17.1873 26.6604 17.1873C28.8971 17.1873 29.886 20.8484 29.886 20.8484C30.6089 21.2707 31.2315 21.8452 31.7106 22.5318C32.0279 23.0804 32.2545 23.6767 32.3816 24.2977L27.7905 25.8987C27.4106 26.0239 27.0132 26.0875 26.6133 26.087C26.2373 26.0874 25.8638 26.0278 25.5067 25.9105L20.9391 24.3683Z" fill="black"/>
<path fill-rule="evenodd" clip-rule="evenodd" d="M20.9391 24.3683C20.9391 24.3683 20.8332 23.7915 21.6808 22.2964C21.8782 21.8893 22.1686 21.5345 22.5285 21.2604C22.8885 20.9865 23.3078 20.801 23.7527 20.7189C23.7527 20.7189 24.4237 17.1873 26.6604 17.1873C27.1647 17.225 27.6496 17.398 28.0639 17.688C28.4782 17.978 28.8067 18.3744 29.0148 18.8354C29.3121 19.4542 29.43 20.1441 29.3551 20.8266C29.2802 21.5091 29.0155 22.1569 28.591 22.6967C27.6676 23.8302 26.6686 24.8999 25.6009 25.8987L20.9391 24.3683Z" fill="#F7A720"/>
<path d="M26.0122 19.106C26.1877 19.106 26.33 18.9638 26.33 18.7881C26.33 18.6126 26.1877 18.4703 26.0122 18.4703C25.8367 18.4703 25.6943 18.6126 25.6943 18.7881C25.6943 18.9638 25.8367 19.106 26.0122 19.106Z" fill="#666666"/>
<path d="M27.2722 19.106C27.4478 19.106 27.59 18.9638 27.59 18.7881C27.59 18.6126 27.4478 18.4703 27.2722 18.4703C27.0966 18.4703 26.9543 18.6126 26.9543 18.7881C26.9543 18.9638 27.0966 19.106 27.2722 19.106Z" fill="#666666"/>
<path d="M27.201 52.9039C22.0926 52.9039 17.0991 51.3892 12.8517 48.5512C8.60424 45.7131 5.29379 41.6793 3.33892 36.9598C1.38405 32.2404 0.872573 27.0472 1.86916 22.0371C2.86574 17.0269 5.32563 12.4248 8.93776 8.81262C12.5499 5.2005 17.152 2.74062 22.1622 1.74404C27.1723 0.74745 32.3655 1.25893 37.0849 3.2138C41.8045 5.16867 45.8382 8.47912 48.6762 12.7265C51.5143 16.974 53.0291 21.9675 53.0291 27.0758C53.0104 33.9201 50.2833 40.4789 45.4436 45.3185C40.604 50.1582 34.0452 52.8853 27.201 52.9039ZM27.201 3.99067C22.6352 3.99067 18.1719 5.34458 14.3755 7.88122C10.5792 10.4179 7.62031 14.0233 5.87304 18.2415C4.12578 22.4598 3.66861 27.1015 4.55936 31.5796C5.45012 36.0576 7.64877 40.171 10.8773 43.3995C14.1058 46.628 18.2192 48.8267 22.6972 49.7174C27.1754 50.6082 31.817 50.1511 36.0353 48.4038C40.2535 46.6565 43.859 43.6976 46.3956 39.9013C48.9323 36.1049 50.2862 31.6416 50.2862 27.0758C50.2768 20.9562 47.8416 15.0897 43.5144 10.7625C39.1871 6.43519 33.3206 4 27.201 3.99067Z" fill="#F45E22"/>
<path d="M42.6271 7.94949L7.90619 42.2847L9.83486 44.235L44.5558 9.89983L42.6271 7.94949Z" fill="#F45E22"/>
<g opacity="0.2">
<path opacity="0.2" d="M27.201 52.9039C22.0926 52.9039 17.0991 51.3892 12.8517 48.5512C8.60424 45.7131 5.29379 41.6793 3.33892 36.9598C1.38405 32.2404 0.872573 27.0472 1.86916 22.0371C2.86574 17.0269 5.32563 12.4248 8.93776 8.81262C12.5499 5.2005 17.152 2.74062 22.1622 1.74404C27.1723 0.74745 32.3655 1.25893 37.0849 3.2138C41.8045 5.16867 45.8382 8.47912 48.6762 12.7265C51.5143 16.974 53.0291 21.9675 53.0291 27.0758C53.0104 33.9201 50.2833 40.4789 45.4436 45.3185C40.604 50.1582 34.0452 52.8853 27.201 52.9039ZM27.201 3.99067C22.6352 3.99067 18.1719 5.34458 14.3755 7.88122C10.5792 10.4179 7.62031 14.0233 5.87304 18.2415C4.12578 22.4598 3.66861 27.1015 4.55936 31.5796C5.45012 36.0576 7.64877 40.171 10.8773 43.3995C14.1058 46.628 18.2192 48.8267 22.6972 49.7174C27.1754 50.6082 31.817 50.1511 36.0353 48.4038C40.2535 46.6565 43.859 43.6976 46.3956 39.9013C48.9323 36.1049 50.2862 31.6416 50.2862 27.0758C50.2768 20.9562 47.8416 15.0897 43.5144 10.7625C39.1871 6.43519 33.3206 4 27.201 3.99067Z" fill="black"/>
<path opacity="0.2" d="M42.627 7.94968L7.90601 42.2849L9.83467 44.2352L44.5556 9.90002L42.627 7.94968Z" fill="black"/>
</g>
<path d="M26.9903 52.4566C21.9252 52.4589 16.9732 50.9589 12.7608 48.1464C8.54832 45.3338 5.26471 41.3351 3.32531 36.656C1.38591 31.9769 0.877865 26.8278 1.86544 21.8599C2.85302 16.8921 5.29184 12.3287 8.8734 8.74711C12.455 5.16557 17.0183 2.72674 21.9862 1.73916C26.954 0.751585 32.1033 1.25962 36.7824 3.19903C41.4614 5.13843 45.4601 8.42204 48.2727 12.6344C51.0853 16.8469 52.5852 21.7988 52.5829 26.8639C52.5705 33.6477 49.87 40.1501 45.0732 44.947C40.2763 49.7438 33.774 52.4442 26.9903 52.4566ZM26.9903 3.97889C22.4635 3.97657 18.0378 5.31677 14.2728 7.82999C10.5078 10.3432 7.57272 13.9165 5.8388 18.098C4.10488 22.2796 3.64999 26.8813 4.53169 31.3214C5.41339 35.7614 7.59205 39.8402 10.7921 43.042C13.9922 46.2437 18.0699 48.4245 22.5094 49.3085C26.9491 50.1924 31.551 49.7399 35.7335 48.0081C39.9159 46.2763 43.4907 43.3431 46.0058 39.5795C48.5211 35.8158 49.8636 31.3906 49.8636 26.8639C49.8573 20.7984 47.4458 14.9829 43.1579 10.6928C38.87 6.40271 33.0558 3.98823 26.9903 3.97889Z" fill="#F45E22"/>
<path d="M42.2797 7.91098L7.86249 41.9339L9.77426 43.8679L44.1915 9.8449L42.2797 7.91098Z" fill="#F45E22"/>
</svg>
