<svg width="17" height="20" viewBox="0 0 17 20" fill="none" xmlns="http://www.w3.org/2000/svg">
    <path d="M7.5061 17.7071L8.21321 18.4142L8.92031 17.7071L13.3137 13.3137L12.6066 12.6066L13.3137 13.3137C14.3225 12.3049 15.0095 11.0196 15.2878 9.6204C15.5661 8.22117 15.4233 6.77084 14.8773 5.45281C14.3314 4.13477 13.4068 3.00823 12.2206 2.21564C11.0344 1.42304 9.63984 1 8.21321 1C6.78657 1 5.39198 1.42304 4.20577 2.21564C3.01957 3.00823 2.09504 4.13477 1.54908 5.45281C1.00313 6.77084 0.86028 8.22117 1.1386 9.6204C1.41691 11.0196 2.10389 12.3049 3.11267 13.3137L3.80923 12.6171L3.11267 13.3137L7.5061 17.7071Z" stroke="#415859" stroke-width="2"/>
</svg>
